Coordinates
version=1
nRows=7
nColumns=40
inDegrees=yes

Units are S.I. units (second, meters, Newtons, ...)
If the header above contains a line with 'inDegrees', this indicates whether rotational values are in degrees (yes) or radians (no).

endheader
time	pelvis_tilt	pelvis_list	pelvis_rotation	pelvis_tx	pelvis_ty	pelvis_tz	hip_flexion_r	hip_adduction_r	hip_rotation_r	knee_angle_r	knee_angle_r_beta	ankle_angle_r	subtalar_angle_r	mtp_angle_r	hip_flexion_l	hip_adduction_l	hip_rotation_l	knee_angle_l	knee_angle_l_beta	ankle_angle_l	subtalar_angle_l	mtp_angle_l	lumbar_extension	lumbar_bending	lumbar_rotation	arm_flex_r	arm_add_r	arm_rot_r	elbow_flex_r	pro_sup_r	wrist_flex_r	wrist_dev_r	arm_flex_l	arm_add_l	arm_rot_l	elbow_flex_l	pro_sup_l	wrist_flex_l	wrist_dev_l
      3.88333333	    -23.86502590	     -0.67680725	      9.09807653	     -0.25453760	      1.02559171	      0.01709844	     84.64978816	    -14.26290855	      4.86666326	    109.00698765	      1.90253084	     -5.73331135	    -17.54630330	      0.00000000	     81.11301090	      0.57723785	      3.85177349	     60.27346740	      1.05197046	    -11.87107076	     -9.30934045	      0.00000000	    -30.16922477	      2.02066895	     -3.83914530	     85.55420281	    -14.58971211	     54.84755597	     17.96500244	     89.20217526	      0.00000000	      0.00000000	     88.47203733	      2.06560054	     21.61553295	      9.98077754	     89.42286982	      0.00000000	      0.00000000
      3.89166667	    -24.17416269	     -0.80153343	      9.23332393	     -0.25421782	      1.02516031	      0.01663152	     86.31126298	    -14.39606491	      5.29726235	    110.55322140	      1.92951771	     -5.60408355	    -17.69501407	      0.00000000	     79.92921780	      0.63391036	      3.85417997	     58.44707667	      1.02009393	    -12.46892007	     -9.40469237	      0.00000000	    -29.74976729	      2.24669110	     -3.90629119	     85.14465653	    -14.50443783	     52.38623380	     18.32944013	     89.21774578	      0.00000000	      0.00000000	     88.35626710	      2.11348956	     21.04994398	      9.87416269	     89.41988125	      0.00000000	      0.00000000
      3.90000000	    -24.11209056	     -0.93180596	      9.13072562	     -0.25362873	      1.02527209	      0.01641120	     87.52755909	    -14.23903024	      5.79813839	    112.00461072	      1.95484923	     -4.87937049	    -16.63320170	      0.00000000	     78.36118897	      0.41656585	      3.88203422	     56.72853601	      0.99009973	    -12.92095198	     -9.21502168	      0.00000000	    -29.75183174	      2.44466287	     -3.77406339	     85.47634158	    -14.57926065	     55.29007532	     18.01136730	     89.20058016	      0.00000000	      0.00000000	     88.24696772	      2.02704305	     21.46530949	      9.83577923	     89.42194728	      0.00000000	      0.00000000
      3.90833333	    -24.26355224	     -1.03623004	      9.09850940	     -0.25311253	      1.02514782	      0.01625582	     89.02780853	    -14.14045226	      6.28351163	    113.39514952	      1.97911871	     -5.08450605	    -16.01210408	      0.00000000	     77.04908445	      0.29987953	      3.85058319	     55.06589980	      0.96108126	    -13.55224682	     -9.41387550	      0.00000000	    -29.52654120	      2.58811668	     -3.70476957	     85.34313473	    -14.56210538	     54.95547865	     18.10489450	     89.20462724	      0.00000000	      0.00000000	     88.12668434	      2.01351448	     21.16726959	      9.81606836	     89.42114854	      0.00000000	      0.00000000
      3.91666667	    -24.51364421	     -1.26102453	      9.17623365	     -0.25287123	      1.02484045	      0.01594865	     90.64923389	    -14.15362040	      6.62752982	    114.69179309	      2.00174941	     -4.89371759	    -15.94919652	      0.00000000	     75.94710190	      0.28239498	      3.99821984	     53.50151128	      0.93377753	    -14.24616330	     -9.55314608	      0.00000000	    -29.17531159	      2.88604025	     -3.66415836	     85.13356005	    -14.56794557	     53.89525952	     18.33612888	     89.21365679	      0.00000000	      0.00000000	     88.00349490	      2.03998068	     20.75036786	      9.79798974	     89.42203089	      0.00000000	      0.00000000
      3.92500000	    -24.35607981	     -1.36646831	      9.19937490	     -0.25230096	      1.02512539	      0.01576022	     91.75095720	    -14.06958829	      7.07058132	    115.90777695	      2.02297234	     -4.02331175	    -15.70412597	      0.00000000	     74.39258214	      0.16970376	      4.04068864	     51.97065923	      0.90705912	    -14.88324199	     -9.51824373	      0.00000000	    -29.29718312	      3.09834909	     -3.64497402	     85.31803597	    -14.53841574	     55.38263033	     18.10463810	     89.20429508	      0.00000000	      0.00000000	     87.92708489	      1.94946581	     21.20740688	      9.76227708	     89.42204711	      0.00000000	      0.00000000
      3.93333333	    -24.43376392	     -1.58329456	      9.21979515	     -0.25197226	      1.02509333	      0.01559820	     93.24433069	    -14.04730080	      7.29068372	    117.02154913	      2.04241133	     -3.77935686	    -15.62025186	      0.00000000	     73.15499839	      0.08563660	      4.16759738	     50.56392071	      0.88250690	    -15.52357085	     -9.84838797	      0.00000000	    -29.15052913	      3.38481701	     -3.56298306	     85.30623316	    -14.54509652	     55.58075106	     18.11789307	     89.20202211	      0.00000000	      0.00000000	     87.82543929	      1.94179103	     20.63691483	      9.82351196	     89.42176628	      0.00000000	      0.00000000
